Coordinates
version=1
nRows=9
nColumns=36
inDegrees=yes

Units are S.I. units (second, meters, Newtons, ...)
If the header above contains a line with 'inDegrees', this indicates whether rotational values are in degrees (yes) or radians (no).

endheader
time	pelvis_tilt	pelvis_list	pelvis_rotation	pelvis_tx	pelvis_ty	pelvis_tz	hip_flexion_r	hip_adduction_r	hip_rotation_r	knee_angle_r	knee_angle_r_beta	ankle_angle_r	subtalar_angle_r	mtp_angle_r	hip_flexion_l	hip_adduction_l	hip_rotation_l	knee_angle_l	knee_angle_l_beta	ankle_angle_l	subtalar_angle_l	mtp_angle_l	lumbar_extension	lumbar_bending	lumbar_rotation	arm_flex_r	arm_add_r	arm_rot_r	elbow_flex_r	pro_sup_r	arm_flex_l	arm_add_l	arm_rot_l	elbow_flex_l	pro_sup_l
      0.00000000	    -17.59960675	     -0.38889029	     -0.91651218	     -0.91097422	      1.18788096	     -0.07171951	     33.82896837	     -1.45556947	      1.05717703	     29.10879040	      0.50804423	     10.24394524	     -9.73421029	     -5.62525273	     32.24242912	     -7.63504884	     -9.74977173	     25.93774986	      0.45269914	      6.51478311	      1.22802453	     -5.62525273	    -21.27155327	      4.01175473	      3.00596081	      6.52975094	    -17.36994472	     11.92281897	     31.74396775	     74.11020254	      6.55505683	    -11.20084951	     14.15570571	     34.93328803	     71.86423338
      0.00416670	    -19.63315069	      1.56195903	     -0.76889797	     -0.91122564	      1.18549555	     -0.07089468	     36.60687597	     -2.93469087	      2.41032711	     30.06719738	      0.52477159	     15.93702339	     -4.37678172	     -5.90952886	     35.21026410	     -5.31026434	    -10.00063551	     27.91341449	      0.48718099	     10.56862529	      6.07565973	     -5.90952886	    -18.35469814	      2.32951811	      2.31713215	      6.85827570	    -15.32779427	     12.72784762	     27.09712125	     73.13633342	      6.84800578	    -11.18699336	     13.25585038	     31.37217753	     71.10457749
      0.00833330	    -20.34405671	      2.19188046	     -1.22091454	     -0.91120692	      1.18609875	     -0.06987302	     36.93395203	     -3.29945068	      2.45071169	     29.33104609	      0.51192333	     16.36993819	     -4.27175204	     -5.87813828	     35.51640167	     -5.11625326	    -10.25366645	     27.20233174	      0.47477025	     11.13894710	      6.66502352	     -5.87813828	    -17.44085771	      1.37842286	      2.40945167	      6.73097414	    -15.15256467	     13.30572185	     26.69815145	     72.84273219	      6.67356982	    -11.68288655	     13.50398605	     31.02185242	     70.86893399
      0.01250000	    -19.81892514	      2.47490465	     -1.61479096	     -0.91162787	      1.18799171	     -0.06951200	     36.47845759	     -3.63291253	      2.07016983	     29.58902393	      0.51642589	     17.53110496	     -2.33845579	     -5.91031894	     34.56252827	     -5.03217821	    -10.80133558	     26.52205951	      0.46289726	     11.49384908	      7.47017683	     -5.91031894	    -18.14896830	      1.06872027	      2.77487485	      6.99944516	    -16.17987137	     16.34713420	     26.15206947	     72.88381895	      7.66760443	    -12.24372971	     15.29443308	     29.63077430	     71.11505906
      0.01666670	    -19.76675587	      2.34648471	     -1.80170592	     -0.91182430	      1.18884017	     -0.06956686	     36.44416169	     -3.52753379	      1.95538854	     29.68464542	      0.51809480	     17.58844792	     -1.96900711	     -6.19291084	     34.30607471	     -5.16271209	    -10.84624446	     26.08367803	      0.45524606	     11.68471936	      7.59884565	     -6.19291084	    -18.25473737	      1.37798204	      2.98984984	      7.21945737	    -17.12503848	     21.33364489	     25.69797545	     72.48976424	      8.04394596	    -12.71293855	     18.44400954	     28.49312853	     71.40019101
      0.02083330	    -19.56385238	      2.18318381	     -2.00457461	     -0.91213569	      1.18979990	     -0.06956038	     36.37877773	     -3.35494740	      1.75481720	     29.99942842	      0.52358880	     17.45336656	     -1.45744692	     -6.27573504	     33.99743366	     -5.42957686	    -11.13778197	     25.79507782	      0.45020904	     11.71315518	      8.08735906	     -6.27573504	    -18.71619880	      1.61729380	      3.35276736	      7.21193607	    -17.33660820	     21.67558889	     25.54394855	     72.19931970	      8.15854770	    -12.68126538	     18.35203111	     28.18922670	     71.12149672
      0.02500000	    -19.31262524	      1.98049259	     -2.21507519	     -0.91248387	      1.19110793	     -0.06952791	     36.28163521	     -3.18345032	      1.67672192	     30.18300465	      0.52679281	     17.26000948	     -1.15125184	     -6.44024539	     33.67656681	     -5.74681730	    -11.36047333	     25.72674357	      0.44901638	     11.72465214	      8.15618560	     -6.44024539	    -19.22209647	      1.88597516	      3.70919828	      7.30640639	    -17.65752298	     22.35749130	     25.55284647	     71.69563092	      8.37961183	    -12.55567020	     18.28032365	     27.76421181	     70.54895463
      0.02916670	    -19.52935579	      1.92970396	     -2.39916108	     -0.91265275	      1.19061732	     -0.06952846	     36.66211667	     -3.16410023	      1.57055816	     30.44526762	      0.53137016	     17.16959412	     -1.25856744	     -6.44863463	     33.93476092	     -5.92614630	    -11.53015696	     25.82358642	      0.45070661	     11.76016230	      8.10754585	     -6.44863463	    -18.91547789	      1.96239192	      3.84794111	      7.38617354	    -17.88326177	     22.41400454	     25.71615976	     71.32980270	      7.98018640	    -12.70757955	     18.23477190	     27.78126229	     70.17742579
      0.03333330	    -19.75737620	      1.93101334	     -2.65867500	     -0.91300242	      1.19065618	     -0.06932669	     37.09236326	     -3.01727094	      1.63889158	     30.67161876	      0.53532073	     17.01395324	     -1.25889524	     -6.50268139	     34.39604163	     -6.03584374	    -11.28449536	     26.02443385	      0.45421206	     11.59079965	      7.78669378	     -6.50268139	    -18.90739936	      1.92528427	      4.02915375	      7.25521916	    -18.00672551	     22.59062802	     26.33324128	     70.71456056	      7.62299108	    -12.80918407	     18.11883553	     28.15011610	     69.53069452
